<?xml version="1.0" encoding="UTF-8" standalone="no"?>
<svg width="15px" height="15px" viewBox="0 0 15 15" version="1.1" xmlns="http://www.w3.org/2000/svg" xmlns:xlink="http://www.w3.org/1999/xlink" xmlns:sketch="http://www.bohemiancoding.com/sketch/ns">
    <!-- Generator: Sketch 3.3.3 (12081) - http://www.bohemiancoding.com/sketch -->
    <title>Imported Layers Copy</title>
    <desc>Created with Sketch.</desc>
    <defs></defs>
    <g id="Home" stroke="none" stroke-width="1" fill="none" fill-rule="evenodd" sketch:type="MSPage">
        <g id="03b-detail-data" sketch:type="MSArtboardGroup" transform="translate(-912.000000, -341.000000)" fill="#FFFFFF">
            <g id="Imported-Layers-Copy-+-CONFIGURE" sketch:type="MSLayerGroup" transform="translate(912.000000, 340.000000)">
                <path d="M13.3978235,8.41176471 C13.3978235,7.48758824 13.9665882,6.75805882 14.8235294,6.25652941 C14.6692941,5.74052941 14.4645882,5.24641176 14.2131176,4.78123529 C13.2522353,5.03252941 12.4747059,4.65611765 11.8210588,4.00264706 C11.1674118,3.34882353 10.9672941,2.57111765 11.2187647,1.61041176 C10.7535882,1.35876471 10.2594706,1.15423529 9.74347059,1 C9.24194118,1.85694118 8.33611765,2.42588235 7.41176471,2.42588235 C6.48741176,2.42588235 5.58176471,1.85694118 5.08005882,1 C4.56405882,1.15405882 4.06994118,1.35876471 3.60476471,1.61023529 C3.85605882,2.57094118 3.65611765,3.34864706 3.00247059,4.00264706 C2.34882353,4.65629412 1.57094118,5.03252941 0.610411765,4.78141176 C0.358764706,5.24641176 0.154235294,5.74052941 0,6.25652941 C0.856764706,6.75805882 1.42570588,7.48758824 1.42570588,8.41176471 C1.42570588,9.33594118 0.856764706,10.2419412 0,10.7434706 C0.154235294,11.2594706 0.358764706,11.7535882 0.610411765,12.2187647 C1.57111765,11.9674706 2.34882353,12.1674118 3.00247059,12.8210588 C3.65594118,13.4747059 3.85605882,14.2525882 3.60476471,15.2131176 C4.06994118,15.4647647 4.56405882,15.6694706 5.08023529,15.8235294 C5.58194118,14.9665882 6.48741176,14.3978235 7.41176471,14.3978235 C8.33611765,14.3978235 9.24194118,14.9665882 9.74347059,15.8235294 C10.2594706,15.6692941 10.7535882,15.4647647 11.2189412,15.2129412 C10.9676471,14.2525882 11.1674118,13.4747059 11.8210588,12.8210588 C12.4747059,12.1674118 13.2524118,11.791 14.2131176,12.0422941 C14.4645882,11.5771176 14.6692941,11.083 14.8235294,10.567 C13.9665882,10.0654706 13.3978235,9.33594118 13.3978235,8.41176471 L13.3978235,8.41176471 Z M7.41176471,11.6351765 C5.63170588,11.6351765 4.18852941,10.192 4.18852941,8.41176471 C4.18852941,6.63152941 5.63170588,5.18852941 7.41176471,5.18852941 C9.192,5.18852941 10.6348235,6.63152941 10.6348235,8.41176471 C10.6348235,10.192 9.192,11.6351765 7.41176471,11.6351765 L7.41176471,11.6351765 Z" id="Imported-Layers-Copy" sketch:type="MSShapeGroup"></path>
            </g>
        </g>
    </g>
</svg>
