<?xml version="1.0" encoding="UTF-8" standalone="no"?>
<svg width="15px" height="17px" viewBox="0 0 15 17" version="1.1" xmlns="http://www.w3.org/2000/svg" xmlns:xlink="http://www.w3.org/1999/xlink" xmlns:sketch="http://www.bohemiancoding.com/sketch/ns">
    <!-- Generator: Sketch 3.3.3 (12081) - http://www.bohemiancoding.com/sketch -->
    <title>share</title>
    <desc>Created with Sketch.</desc>
    <defs></defs>
    <g id="Home" stroke="none" stroke-width="1" fill="none" fill-rule="evenodd" sketch:type="MSPage">
        <g id="02e-insight-map-03" sketch:type="MSArtboardGroup" transform="translate(-1442.000000, -1109.000000)" fill="#B9BFC4">
            <g id="legend" sketch:type="MSLayerGroup" transform="translate(1230.000000, 1028.000000)">
                <path d="M224.037037,92.1111111 C223.400556,92.1111111 222.816111,92.3274074 222.347778,92.6874074 L217.515185,89.787963 C217.53963,89.6396296 217.555556,89.4885185 217.555556,89.3333333 C217.555556,89.177963 217.53963,89.027037 217.515185,88.8787037 L222.347778,85.9792593 C222.816111,86.3392593 223.400556,86.5555556 224.037037,86.5555556 C225.570926,86.5555556 226.814815,85.3116667 226.814815,83.7777778 C226.814815,82.2438889 225.570926,81 224.037037,81 C222.502963,81 221.259259,82.2438889 221.259259,83.7777778 C221.259259,83.932963 221.275185,84.0840741 221.299444,84.2324074 L216.467037,87.1318519 C215.998519,86.7718519 215.414074,86.5555556 214.777778,86.5555556 C213.243704,86.5555556 212,87.7994444 212,89.3333333 C212,90.8672222 213.243704,92.1111111 214.777778,92.1111111 C215.414074,92.1111111 215.998519,91.8948148 216.467037,91.5348148 L221.299444,94.4342593 C221.275185,94.5825926 221.259259,94.7335185 221.259259,94.8888889 C221.259259,96.4227778 222.502963,97.6666667 224.037037,97.6666667 C225.570926,97.6666667 226.814815,96.4227778 226.814815,94.8888889 C226.814815,93.355 225.570926,92.1111111 224.037037,92.1111111" id="share" sketch:type="MSShapeGroup"></path>
            </g>
        </g>
    </g>
</svg>
