<?xml version="1.0" encoding="UTF-8" standalone="no"?>
<svg width="19px" height="19px" viewBox="0 0 19 19" version="1.1" xmlns="http://www.w3.org/2000/svg" xmlns:xlink="http://www.w3.org/1999/xlink" xmlns:sketch="http://www.bohemiancoding.com/sketch/ns">
    <!-- Generator: Sketch 3.3.3 (12081) - http://www.bohemiancoding.com/sketch -->
    <title>Star 69</title>
    <desc>Created with Sketch.</desc>
    <defs></defs>
    <g id="Home" stroke="none" stroke-width="1" fill="none" fill-rule="evenodd" sketch:type="MSPage">
        <g id="03c-detail-data-standalone" sketch:type="MSArtboardGroup" transform="translate(-705.000000, -273.000000)" fill="#65B60D">
            <g id="Source:-Centre-for-R-+-ï˜" sketch:type="MSLayerGroup" transform="translate(230.000000, 273.000000)">
                <g id="Verified-+-Star-69-+-Rectangle-1196" transform="translate(475.000000, 0.000000)" sketch:type="MSShapeGroup">
                    <g id="Star-69-+-Rectangle-1196">
                        <path d="M9.5,17.8821436 L7.52483894,18.7924022 L6.09067504,17.1574692 L3.9160401,17.1856614 L3.27085334,15.1087488 L1.27275866,14.25 L1.52810769,12.0902248 L0.052041994,10.4930204 L1.16377464,8.62382741 L0.464963095,6.56433855 L2.24085069,5.30892819 L2.44012416,3.14325924 L4.5730996,2.71870336 L5.63600189,0.821318152 L7.75725435,1.30102633 L9.5,0 L11.2427457,1.30102633 L13.3639981,0.821318152 L14.4269004,2.71870336 L16.5598758,3.14325924 L16.7591493,5.30892819 L18.5350369,6.56433855 L17.8362254,8.62382741 L18.947958,10.4930204 L17.4718923,12.0902248 L17.7272413,14.25 L15.7291467,15.1087488 L15.0839599,17.1856614 L12.909325,17.1574692 L11.4751611,18.7924022 L9.5,17.8821436 Z M8.43933983,10.767767 L6.31801948,8.64644661 L4.90380592,10.0606602 L7.73223305,12.8890873 L8.43933983,13.5961941 L14.0961941,7.93933983 L12.6819805,6.52512627 L8.43933983,10.767767 L8.43933983,10.767767 Z" id="Star-69"></path>
                    </g>
                </g>
            </g>
        </g>
    </g>
</svg>
