<?xml version="1.0" encoding="utf-8"?>
<!-- Generated by IcoMoon.io -->
<!DOCTYPE svg PUBLIC "-//W3C//DTD SVG 1.1//EN" "http://www.w3.org/Graphics/SVG/1.1/DTD/svg11.dtd">
<svg version="1.1" xmlns="http://www.w3.org/2000/svg" xmlns:xlink="http://www.w3.org/1999/xlink" width="194" height="32" viewBox="0 0 194 32">
<path fill="#fff" d="M50.901 15.615c0.462-0.62 0.694-1.372 0.694-2.257 0-0.732-0.128-1.343-0.382-1.833-0.255-0.49-0.599-0.879-1.032-1.168s-0.936-0.512-1.511-0.636-1.182-0.202-1.822-0.202h-4.688v12.602h2.768v-5.12h1.192l2.631 5.12h3.325l-3.2-5.311c0.889-0.165 1.564-0.575 2.026-1.194v0zM48.493 14.137c-0.148 0.189-0.335 0.327-0.56 0.416-0.226 0.088-0.477 0.091-0.756 0.108s-0.542-0.024-0.791-0.024h-1.458v-2.757h1.636c0.249 0 0.503 0.022 0.764 0.057s0.492 0.106 0.694 0.206c0.201 0.101 0.367 0.246 0.498 0.435s0.195 0.443 0.195 0.762c0 0.343-0.074 0.609-0.222 0.797zM55.999 17h5.536v-2.757h-5.536v-1.969h5.536v-2.757h-8.303v12.603h8.699v-2.757h-5.931v-2.363zM70.375 15.482c-0.433-0.26-0.898-0.46-1.395-0.602s-0.963-0.283-1.395-0.425c-0.433-0.142-0.791-0.312-1.075-0.514s-0.427-0.49-0.427-0.868c0-0.236 0.059-0.437 0.178-0.602s0.273-0.298 0.462-0.398c0.19-0.1 0.391-0.174 0.605-0.221s0.421-0.070 0.622-0.070c0.344 0 0.708 0.068 1.093 0.203s0.69 0.345 0.916 0.629l1.902-2.072c-0.533-0.472-1.132-0.809-1.796-1.009s-1.351-0.301-2.062-0.301c-0.616 0-1.215 0.086-1.796 0.257s-1.093 0.428-1.537 0.77c-0.444 0.343-0.8 0.768-1.067 1.275s-0.4 1.098-0.4 1.771c0 0.696 0.145 1.257 0.435 1.682s0.655 0.767 1.093 1.027c0.438 0.26 0.913 0.466 1.422 0.619s0.983 0.307 1.422 0.46 0.803 0.339 1.093 0.558c0.29 0.219 0.436 0.516 0.436 0.894 0 0.225-0.057 0.419-0.169 0.585s-0.261 0.3-0.444 0.407-0.391 0.186-0.622 0.239c-0.231 0.053-0.459 0.080-0.684 0.080-0.462 0-0.91-0.103-1.342-0.31-0.433-0.206-0.791-0.498-1.075-0.876l-1.973 2.16c0.604 0.555 1.256 0.956 1.955 1.204s1.457 0.372 2.275 0.372c0.651 0 1.271-0.083 1.858-0.248s1.102-0.419 1.546-0.761 0.797-0.773 1.058-1.293c0.261-0.519 0.391-1.127 0.391-1.823 0-0.732-0.142-1.316-0.427-1.753s-0.643-0.785-1.075-1.044zM84.445 11.012c-0.604-0.573-1.321-1.012-2.151-1.319s-1.737-0.46-2.72-0.46c-0.984 0-1.89 0.154-2.72 0.46s-1.546 0.747-2.151 1.319-1.075 1.266-1.414 2.081c-0.337 0.814-0.507 1.723-0.507 2.726s0.169 1.912 0.507 2.726c0.338 0.815 0.809 1.508 1.414 2.081s1.321 1.012 2.151 1.319c0.83 0.307 1.736 0.46 2.72 0.46s1.89-0.154 2.72-0.46c0.83-0.307 1.546-0.746 2.151-1.319s1.076-1.266 1.414-2.081c0.337-0.814 0.507-1.723 0.507-2.726s-0.169-1.912-0.507-2.726c-0.338-0.815-0.809-1.508-1.414-2.081zM83.21 17.439c-0.184 0.49-0.448 0.915-0.791 1.275s-0.756 0.64-1.236 0.841c-0.48 0.201-1.016 0.301-1.608 0.301s-1.129-0.1-1.609-0.301-0.892-0.481-1.236-0.841c-0.344-0.36-0.607-0.785-0.791-1.275s-0.276-1.029-0.276-1.62c0-0.578 0.092-1.115 0.276-1.611s0.447-0.924 0.791-1.284c0.344-0.36 0.756-0.64 1.236-0.841s1.016-0.3 1.609-0.3c0.592 0 1.128 0.1 1.608 0.3s0.892 0.481 1.236 0.841c0.344 0.36 0.607 0.788 0.791 1.284s0.276 1.033 0.276 1.611c0 0.591-0.092 1.131-0.276 1.62zM95.539 17.147c0 0.39-0.027 0.75-0.151 1.080s-0.282 0.617-0.507 0.859c-0.225 0.242-0.483 0.431-0.791 0.567s-0.642 0.204-1.009 0.204c-0.367 0-0.706-0.068-1.020-0.204s-0.582-0.325-0.808-0.567c-0.225-0.242-0.472-0.528-0.596-0.859s-0.258-0.691-0.258-1.080v-7.629h-2.768v7.736c0 0.744 0.182 1.428 0.407 2.054s0.595 1.169 1.040 1.629 1.016 0.82 1.679 1.080c0.664 0.26 1.443 0.39 2.32 0.39 0.865 0 1.634-0.13 2.298-0.39s1.22-0.619 1.665-1.080c0.444-0.46 0.742-1.003 0.967-1.629s0.301-1.31 0.301-2.054v-7.736h-2.768v7.629zM109.386 15.615c0.462-0.62 0.693-1.372 0.693-2.257 0-0.732-0.128-1.343-0.382-1.833-0.255-0.49-0.599-0.879-1.032-1.168s-0.936-0.512-1.511-0.636-1.182-0.202-1.822-0.202h-5.049v12.602h2.768v-5.12h1.553l2.631 5.12h3.325l-3.2-5.311c0.889-0.165 1.565-0.575 2.027-1.194zM106.978 14.137c-0.148 0.189-0.335 0.327-0.56 0.416-0.226 0.088-0.477 0.091-0.756 0.108s-0.543-0.024-0.791-0.024h-1.82v-2.757h1.998c0.249 0 0.503 0.022 0.764 0.057s0.492 0.106 0.694 0.206c0.201 0.101 0.367 0.246 0.498 0.435s0.195 0.443 0.195 0.762c0 0.343-0.074 0.609-0.222 0.797zM118.772 19.501c-0.439 0.237-0.942 0.354-1.511 0.354-0.498 0-0.963-0.1-1.396-0.301s-0.809-0.481-1.128-0.841c-0.32-0.36-0.572-0.785-0.756-1.275s-0.276-1.029-0.276-1.62c0-0.578 0.092-1.115 0.276-1.611s0.438-0.924 0.764-1.284c0.326-0.36 0.711-0.64 1.155-0.841s0.927-0.3 1.449-0.3 0.981 0.088 1.378 0.265c0.397 0.178 0.731 0.431 1.004 0.762l2.133-1.735c-0.273-0.342-0.581-0.631-0.924-0.868s-0.702-0.425-1.075-0.567c-0.373-0.141-0.753-0.245-1.138-0.31s-0.756-0.097-1.111-0.097c-0.984 0-1.89 0.154-2.72 0.46s-1.546 0.747-2.151 1.319-1.075 1.266-1.414 2.081c-0.337 0.814-0.507 1.723-0.507 2.726s0.169 1.912 0.507 2.726c0.338 0.815 0.809 1.508 1.414 2.081s1.321 1.012 2.151 1.319c0.83 0.307 1.736 0.46 2.72 0.46 0.865 0 1.707-0.177 2.524-0.531s1.493-0.903 2.027-1.647l-2.311-1.717c-0.285 0.425-0.646 0.755-1.085 0.991zM125.984 17h5.536v-2.757h-5.536v-1.969h5.931v-2.757h-8.699v12.603h9.094v-2.757h-6.326v-2.363zM148.832 9.518l-3.128 11.027h-0.036l-3.182-11.027h-1.493l-3.182 11.027h-0.036l-3.129-11.027h-1.209l3.662 12.602h1.44l3.182-11.027h0.036l3.182 11.027h1.44l3.662-12.602h-1.209zM155.232 9.518l-5.493 12.602h1.227l1.422-3.544h6.666l1.369 3.544h1.315l-5.298-12.602h-1.209zM152.85 17.788l2.933-6.87 2.845 6.87h-5.778zM161.57 10.699h4.349v11.421h1.186v-11.421h4.349v-1.181h-9.885v1.181zM181.417 20.272c-0.296 0.242-0.607 0.443-0.933 0.602s-0.661 0.278-1.004 0.354c-0.344 0.077-0.675 0.115-0.996 0.115-0.818 0-1.555-0.141-2.213-0.425s-1.218-0.673-1.68-1.169c-0.462-0.496-0.818-1.080-1.067-1.753s-0.373-1.399-0.373-2.178 0.125-1.505 0.373-2.178c0.249-0.673 0.605-1.257 1.067-1.753s1.022-0.885 1.68-1.169c0.658-0.283 1.395-0.425 2.213-0.425 0.64 0 1.265 0.136 1.876 0.407 0.61 0.272 1.111 0.703 1.502 1.293l0.96-0.797c-0.557-0.708-1.206-1.213-1.947-1.514s-1.537-0.451-2.391-0.451c-0.96 0-1.84 0.165-2.64 0.496s-1.484 0.788-2.053 1.372c-0.569 0.584-1.013 1.278-1.333 2.081s-0.48 1.682-0.48 2.638c0 0.956 0.16 1.839 0.48 2.647s0.765 1.505 1.333 2.090c0.569 0.584 1.253 1.039 2.053 1.363s1.68 0.487 2.64 0.487c0.924 0 1.784-0.177 2.578-0.531s1.493-0.939 2.097-1.753l-0.96-0.726c-0.225 0.343-0.486 0.634-0.782 0.876zM193.202 9.518v5.514h-7.117v-5.514h-1.186v12.602h1.186v-5.907h7.117v5.907h1.186v-12.602h-1.186z"></path>
<path fill="#fff" d="M10.292 5.768l-10.292 10.252 7.265 7.236 10.292-10.252-7.266-7.236z"></path>
<path fill="#fff" d="M19.042 11.389l4.159-4.142-7.128-7.1-4.159 4.142 7.128 7.1z"></path>
<path fill="#fff" d="M21.688 26.379l10.292-10.252-7.265-7.236-10.292 10.252 7.265 7.236z"></path>
<path fill="#fff" d="M12.937 20.758l-4.158 4.142 7.129 7.1 4.158-4.142-7.129-7.1z"></path>
</svg>
